<mxfile host="app.diagrams.net" modified="2024-04-23T16:25:42.578Z" agent="Mozilla/5.0 (X11; Linux x86_64) AppleWebKit/537.36 (KHTML, like Gecko) Chrome/125.0.0.0 Safari/537.36 Edg/125.0.0.0" etag="jT2v8BR0AZXslnTJufAr" version="24.2.8" type="device">
  <diagram name="PÃ¡gina-1" id="GqaS2yzh_YFpKsmkKtEa">
    <mxGraphModel dx="901" dy="491" grid="1" gridSize="10" guides="1" tooltips="1" connect="1" arrows="1" fold="1" page="1" pageScale="1" pageWidth="827" pageHeight="1169" math="0" shadow="0">
      <root>
        <mxCell id="0" />
        <mxCell id="1" parent="0" />
        <mxCell id="IIeFJdCi4ttDjo09-xvz-28" value="&lt;p style=&quot;line-height: 120%; margin-top: 92px; margin-bottom: 0px; padding-bottom: 0px; margin-right: 0px;&quot;&gt;&lt;b&gt;&lt;font style=&quot;font-size: 14px;&quot;&gt;Infraestrutura&lt;/font&gt;&lt;/b&gt;&lt;/p&gt;" style="whiteSpace=wrap;html=1;fillColor=#d5e8d4;strokeColor=#82b366;fillStyle=hatch;" vertex="1" parent="1">
          <mxGeometry x="176.98" y="313.90999999999997" width="305.2" height="132.18" as="geometry" />
        </mxCell>
        <mxCell id="IIeFJdCi4ttDjo09-xvz-21" style="edgeStyle=orthogonalEdgeStyle;rounded=0;orthogonalLoop=1;jettySize=auto;html=1;entryX=0.5;entryY=0;entryDx=0;entryDy=0;dashed=1;" edge="1" parent="1" source="IIeFJdCi4ttDjo09-xvz-18" target="IIeFJdCi4ttDjo09-xvz-20">
          <mxGeometry relative="1" as="geometry" />
        </mxCell>
        <mxCell id="IIeFJdCi4ttDjo09-xvz-18" value="Utilizadores" style="sketch=0;outlineConnect=0;gradientColor=none;fontColor=#545B64;strokeColor=none;fillColor=#879196;dashed=0;verticalLabelPosition=bottom;verticalAlign=top;align=center;html=1;fontSize=12;fontStyle=0;aspect=fixed;shape=mxgraph.aws4.illustration_users;pointerEvents=1" vertex="1" parent="1">
          <mxGeometry x="304.58000000000004" y="140" width="50" height="50" as="geometry" />
        </mxCell>
        <mxCell id="IIeFJdCi4ttDjo09-xvz-19" value="" style="outlineConnect=0;dashed=0;verticalLabelPosition=bottom;verticalAlign=top;align=center;html=1;shape=mxgraph.aws3.corporate_data_center;fillColor=#7D7C7C;gradientColor=none;" vertex="1" parent="1">
          <mxGeometry x="230" y="350" width="44.29" height="60" as="geometry" />
        </mxCell>
        <mxCell id="IIeFJdCi4ttDjo09-xvz-22" style="edgeStyle=orthogonalEdgeStyle;rounded=0;orthogonalLoop=1;jettySize=auto;html=1;curved=0;dashed=1;fillColor=#f5f5f5;strokeColor=#666666;" edge="1" parent="1" source="IIeFJdCi4ttDjo09-xvz-20" target="IIeFJdCi4ttDjo09-xvz-19">
          <mxGeometry relative="1" as="geometry" />
        </mxCell>
        <mxCell id="IIeFJdCi4ttDjo09-xvz-25" style="edgeStyle=orthogonalEdgeStyle;rounded=0;orthogonalLoop=1;jettySize=auto;html=1;curved=0;dashed=1;fillColor=#f5f5f5;strokeColor=#666666;" edge="1" parent="1" source="IIeFJdCi4ttDjo09-xvz-20" target="IIeFJdCi4ttDjo09-xvz-23">
          <mxGeometry relative="1" as="geometry" />
        </mxCell>
        <mxCell id="IIeFJdCi4ttDjo09-xvz-26" style="edgeStyle=orthogonalEdgeStyle;rounded=0;orthogonalLoop=1;jettySize=auto;html=1;curved=0;dashed=1;fillColor=#f5f5f5;strokeColor=#666666;" edge="1" parent="1" source="IIeFJdCi4ttDjo09-xvz-20" target="IIeFJdCi4ttDjo09-xvz-24">
          <mxGeometry relative="1" as="geometry" />
        </mxCell>
        <mxCell id="IIeFJdCi4ttDjo09-xvz-20" value="&lt;b&gt;&lt;font style=&quot;font-size: 13px;&quot;&gt;Load Balancer / Reverse Proxy&lt;/font&gt;&lt;/b&gt;" style="rounded=1;whiteSpace=wrap;html=1;fillColor=#ffe6cc;strokeColor=#d79b00;fillStyle=hatch;strokeWidth=1;perimeterSpacing=1;glass=0;" vertex="1" parent="1">
          <mxGeometry x="212.29" y="240" width="235" height="40" as="geometry" />
        </mxCell>
        <mxCell id="IIeFJdCi4ttDjo09-xvz-23" value="" style="outlineConnect=0;dashed=0;verticalLabelPosition=bottom;verticalAlign=top;align=center;html=1;shape=mxgraph.aws3.corporate_data_center;fillColor=#7D7C7C;gradientColor=none;" vertex="1" parent="1">
          <mxGeometry x="307.65" y="350" width="44.29" height="60" as="geometry" />
        </mxCell>
        <mxCell id="IIeFJdCi4ttDjo09-xvz-24" value="" style="outlineConnect=0;dashed=0;verticalLabelPosition=bottom;verticalAlign=top;align=center;html=1;shape=mxgraph.aws3.corporate_data_center;fillColor=#7D7C7C;strokeColor=#23445d;" vertex="1" parent="1">
          <mxGeometry x="390" y="350" width="44.29" height="60" as="geometry" />
        </mxCell>
      </root>
    </mxGraphModel>
  </diagram>
</mxfile>
